<?xml version="1.0" encoding="iso-8859-1"?>
<!-- Generator: Adobe Illustrator 19.0.0, SVG Export Plug-In . SVG Version: 6.00 Build 0)  -->
<svg version="1.1" id="Capa_1" xmlns="http://www.w3.org/2000/svg" xmlns:xlink="http://www.w3.org/1999/xlink" x="0px" y="0px"
	 viewBox="0 0 480 480" style="enable-background:new 0 0 480 480;" xml:space="preserve">
<g>
	<g>
		<path d="M429.776,352.14c6.653-9.404,10.225-20.641,10.224-32.16c-0.03-3.733-2.675-6.933-6.336-7.664
			c11.241-16.308,7.133-38.642-9.175-49.883c-1.831-1.262-3.776-2.351-5.809-3.253l54.92-11.368
			c4.326-0.901,7.102-5.137,6.201-9.463c-0.77-3.699-4.023-6.355-7.801-6.369h-24v-56v-0.096c-0.01-0.969-0.203-1.927-0.568-2.824
			c-0.121-0.252-0.254-0.498-0.4-0.736c-0.299-0.578-0.67-1.115-1.104-1.6c-0.251-0.257-0.518-0.498-0.8-0.72
			c-0.216-0.228-0.445-0.441-0.688-0.64l-240-160c-3.173-2.116-7.399-1.697-10.096,1l-160,160c-0.635,0.665-1.151,1.434-1.528,2.272
			c-0.101,0.246-0.189,0.497-0.264,0.752c-0.239,0.681-0.385,1.392-0.432,2.112c0,0.176-0.096,0.32-0.096,0.496v56H8
			c-4.418,0.017-7.986,3.612-7.969,8.031c0.014,3.778,2.67,7.031,6.369,7.801l54.92,11.352
			c-18.105,8.033-26.27,29.222-18.237,47.327c0.902,2.033,1.991,3.978,3.253,5.809c-3.661,0.731-6.306,3.931-6.336,7.664
			c-0.001,11.519,3.571,22.756,10.224,32.16C21.216,353.684,0,366.852,0,383.98c0,13.272,12.8,24.136,32,29.088v50.912
			c0,4.418,3.582,8,8,8h400c4.418,0,8-3.582,8-8v-50.912c19.2-4.952,32-15.816,32-29.088
			C480,366.852,458.784,353.684,429.776,352.14z M201.016,26.276L413.6,167.98H59.312L201.016,26.276z M48,231.98v-48h384v48H48z
			 M393.848,247.98L240,279.812L86.152,247.98H393.848z M76,271.98h47.2l115.2,23.832c1.071,0.224,2.177,0.224,3.248,0L356.8,271.98
			H404c11.046,0,20,8.954,20,20c0,11.046-8.954,20-20,20H76c-11.046,0-20-8.954-20-20C56,280.934,64.954,271.98,76,271.98z
			 M423.2,327.98c-4.396,21.65-25.51,35.636-47.16,31.24c-15.741-3.196-28.044-15.499-31.24-31.24H423.2z M327.2,327.98
			c-4.396,21.65-25.51,35.636-47.16,31.24c-15.741-3.196-28.044-15.499-31.24-31.24H327.2z M231.2,327.98
			c-4.396,21.65-25.51,35.636-47.16,31.24c-15.741-3.196-28.044-15.499-31.24-31.24H231.2z M135.2,327.98
			c-4.396,21.65-25.51,35.636-47.16,31.24c-15.741-3.196-28.044-15.499-31.24-31.24H135.2z M432,455.98H48v-40.336
			c2.608,0.2,5.264,0.336,8,0.336c12.377,0.207,24.654-2.249,36-7.2c11.346,4.951,23.623,7.407,36,7.2
			c12.377,0.207,24.654-2.249,36-7.2l0.72,0.328c11.164,4.686,23.173,7.025,35.28,6.872c12.377,0.204,24.653-2.252,36-7.2
			c3.16,1.453,6.425,2.664,9.768,3.624c8.536,2.404,17.364,3.608,26.232,3.576c12.377,0.207,24.654-2.249,36-7.2
			c11.346,4.951,23.623,7.407,36,7.2c13.892,0.297,27.639-2.87,40-9.216c12.361,6.346,26.108,9.513,40,9.216
			c2.736,0,5.392-0.136,8-0.336V455.98z M424,399.98c-12.38,0.517-24.634-2.663-35.2-9.136c-2.844-2.133-6.756-2.133-9.6,0
			c-10.566,6.473-22.82,9.653-35.2,9.136c-11.106,0.307-22.116-2.139-32.048-7.12c-2.451-1.392-5.453-1.392-7.904,0
			c-9.932,4.981-20.942,7.427-32.048,7.12c-7.355,0.042-14.681-0.935-21.768-2.904c-3.561-1.009-6.994-2.424-10.232-4.216
			c-2.456-1.384-5.456-1.384-7.912,0c-9.944,4.987-20.968,7.433-32.088,7.12c-9.847,0.172-19.625-1.68-28.728-5.44
			c-1.168-0.533-2.277-1.096-3.328-1.688c-2.451-1.38-5.445-1.38-7.896,0c-9.931,4.983-20.941,7.432-32.048,7.128
			c-11.106,0.307-22.116-2.139-32.048-7.12c-2.451-1.392-5.453-1.392-7.904,0c-9.932,4.981-20.942,7.427-32.048,7.12
			c-24.416,0-40-9.48-40-16c0-6.52,15.584-16,40-16c4.351,0.008,8.694,0.35,12.992,1.024c26.389,14.597,59.6,5.596,75.008-20.328
			c15.758,26.51,50.023,35.226,76.533,19.467c8.012-4.763,14.705-11.455,19.467-19.467c15.758,26.51,50.023,35.226,76.533,19.467
			c8.012-4.763,14.705-11.455,19.467-19.467c15.411,25.93,48.633,34.928,75.024,20.32c4.293-0.67,8.631-1.01,12.976-1.016
			c24.416,0,40,9.48,40,16C464,390.5,448.416,399.98,424,399.98z"/>
	</g>
</g>
<g>
	<g>
		<rect x="76.693" y="199.978" transform="matrix(0.7071 -0.7071 0.7071 0.7071 -121.2867 123.1443)" width="22.624" height="16"/>
	</g>
</g>
<g>
	<g>
		<rect x="160" y="199.98" width="16" height="16"/>
	</g>
</g>
<g>
	<g>
		<rect x="260.689" y="199.982" transform="matrix(0.7071 -0.7071 0.7071 0.7071 -67.3981 253.2504)" width="22.624" height="16"/>
	</g>
</g>
<g>
	<g>
		<rect x="352.003" y="196.668" transform="matrix(0.7071 -0.7071 0.7071 0.7071 -41.6221 315.4754)" width="16" height="22.624"/>
	</g>
</g>
<g>
	<g>
		<rect x="144.004" y="124.667" transform="matrix(0.7071 -0.7071 0.7071 0.7071 -51.6309 147.3105)" width="16" height="22.624"/>
	</g>
</g>
<g>
	<g>
		<rect x="216" y="135.98" width="16" height="16"/>
	</g>
</g>
<g>
	<g>
		<rect x="268.69" y="127.973" transform="matrix(0.7071 -0.7071 0.7071 0.7071 -14.1368 237.817)" width="22.624" height="16"/>
	</g>
</g>
<g>
	<g>
		<rect x="168.002" y="84.668" transform="matrix(0.7071 -0.7071 0.7071 0.7071 -16.3183 152.5644)" width="16" height="22.624"/>
	</g>
</g>
<g>
	<g>
		<rect x="223.057" y="91.981" transform="matrix(0.8944 -0.4472 0.4472 0.8944 -20.2201 114.308)" width="17.888" height="16"/>
	</g>
</g>
<g>
	<g>
		<rect x="192" y="55.98" width="16" height="16"/>
	</g>
</g>
<g>
	<g>
		<rect x="320" y="135.98" width="16" height="16"/>
	</g>
</g>
<g>
	<g>
		<rect x="72" y="423.98" width="16" height="16"/>
	</g>
</g>
<g>
	<g>
		<rect x="160.021" y="420.689" transform="matrix(0.7071 -0.7071 0.7071 0.7071 -256.2579 245.3377)" width="16" height="22.624"/>
	</g>
</g>
<g>
	<g>
		<rect x="224" y="423.98" width="16" height="16"/>
	</g>
</g>
<g>
	<g>
		<rect x="292.693" y="423.979" transform="matrix(0.7071 -0.7071 0.7071 0.7071 -216.4142 341.488)" width="22.624" height="16"/>
	</g>
</g>
<g>
	<g>
		<rect x="368" y="423.98" width="16" height="16"/>
	</g>
</g>
<g>
</g>
<g>
</g>
<g>
</g>
<g>
</g>
<g>
</g>
<g>
</g>
<g>
</g>
<g>
</g>
<g>
</g>
<g>
</g>
<g>
</g>
<g>
</g>
<g>
</g>
<g>
</g>
<g>
</g>
</svg>
